<svg width="105" height="103" viewBox="0 0 105 103" fill="none" xmlns="http://www.w3.org/2000/svg">
<g id="Frame" clip-path="url(#clip0_274_859)">
<g id="Group 39">
<g id="Group 28">
<g id="Group 26">
<path id="Ellipse 3" d="M98.5865 35.0619C109.075 60.1512 96.4187 88.6631 70.3184 98.745C44.2182 108.827 14.5574 96.6611 4.06918 71.5719C-6.41902 46.4826 6.23704 17.9707 32.3373 7.88877C58.4375 -2.19318 88.0983 9.97266 98.5865 35.0619Z" fill="#57D7FF"/>
<path id="Ellipse 9 (Stroke)" fill-rule="evenodd" clip-rule="evenodd" d="M71.7136 94.5061C97.4662 84.5584 109.954 56.4263 99.6052 31.6713C89.2567 6.91624 59.991 -5.08753 34.2384 4.86011C8.48587 14.8078 -4.0016 42.9398 6.34689 67.6949C16.6954 92.45 45.9611 104.454 71.7136 94.5061ZM71.9666 95.1112C98.0669 85.0293 110.723 56.5174 100.235 31.4281C89.7465 6.33887 60.0857 -5.82697 33.9855 4.25498C7.88524 14.3369 -4.77083 42.8488 5.71737 67.9381C16.2056 93.0273 45.8664 105.193 71.9666 95.1112Z" fill="black"/>
<path id="Ellipse 8" d="M32.5936 41.5567C34.6295 46.4269 35.2013 50.7917 33.8707 51.3057C32.5401 51.8197 29.811 48.2882 27.775 43.4179C25.7391 38.5477 25.1673 34.1829 26.4979 33.6689C27.8285 33.1549 30.5576 36.6864 32.5936 41.5567Z" fill="black"/>
<path id="Ellipse 8 (Stroke)" fill-rule="evenodd" clip-rule="evenodd" d="M33.8215 48.1463C33.5995 46.4519 32.9668 44.1985 31.964 41.7998C30.9613 39.4011 29.796 37.3535 28.7366 35.9826C28.2038 35.2931 27.7211 34.8056 27.324 34.5254C27.1262 34.3859 26.9749 34.316 26.871 34.2873C26.8213 34.2736 26.7893 34.2712 26.7721 34.2714C26.7569 34.2716 26.7515 34.2738 26.7509 34.274L26.7509 34.274L26.7508 34.2741C26.7502 34.2743 26.7447 34.2763 26.7336 34.2863C26.7211 34.2975 26.6997 34.3206 26.6737 34.3635C26.6193 34.4534 26.5604 34.6044 26.518 34.8368C26.433 35.3031 26.4355 35.9762 26.5471 36.8283C26.7691 38.5227 27.4018 40.7761 28.4045 43.1748C29.4073 45.5735 30.5726 47.6211 31.632 48.992C32.1648 49.6815 32.6475 50.1691 33.0446 50.4492C33.2424 50.5887 33.3937 50.6586 33.4976 50.6873C33.5473 50.701 33.5793 50.7034 33.5964 50.7032C33.6116 50.703 33.6171 50.7008 33.6177 50.7006L33.6177 50.7006C33.6181 50.7004 33.6235 50.6986 33.635 50.6883C33.6475 50.6771 33.6689 50.6541 33.6949 50.6111C33.7493 50.5212 33.8082 50.3702 33.8505 50.1378C33.9356 49.6715 33.9331 48.9984 33.8215 48.1463ZM33.8707 51.3057C35.2013 50.7917 34.6295 46.4269 32.5936 41.5567C30.5576 36.6864 27.8285 33.1549 26.4979 33.6689C25.1673 34.1829 25.7391 38.5477 27.775 43.4179C29.811 48.2882 32.5401 51.8197 33.8707 51.3057Z" fill="black"/>
<g id="Group 24">
<path id="Ellipse 6" d="M84.3267 42.2134C87.6697 42.4461 90.4323 41.9376 90.4971 41.0777C90.5618 40.2177 87.9043 39.3319 84.5613 39.0992C81.2183 38.8665 78.4558 39.375 78.391 40.2349C78.3262 41.0949 80.9837 41.9807 84.3267 42.2134Z" fill="black"/>
<path id="Ellipse 6 (Stroke)" fill-rule="evenodd" clip-rule="evenodd" d="M88.5136 41.4147C87.4702 41.6068 86.0057 41.6764 84.3757 41.5629C82.7458 41.4495 81.3069 41.1778 80.3032 40.8432C79.7965 40.6743 79.4382 40.5016 79.2242 40.3496C79.1912 40.3262 79.1644 40.3054 79.1428 40.2873C79.1669 40.2723 79.1966 40.2555 79.2327 40.2368C79.4672 40.1161 79.8477 39.9948 80.3744 39.8979C81.4178 39.7058 82.8824 39.6362 84.5123 39.7497C86.1423 39.8631 87.5811 40.1348 88.5849 40.4694C89.0916 40.6383 89.4499 40.811 89.6638 40.9629C89.6968 40.9864 89.7236 41.0072 89.7453 41.0253C89.7211 41.0403 89.6915 41.0571 89.6553 41.0758C89.4208 41.1965 89.0404 41.3178 88.5136 41.4147ZM89.8445 40.9478C89.8444 40.9478 89.8435 40.9489 89.8421 40.9511C89.8439 40.9489 89.8446 40.9478 89.8445 40.9478ZM89.83 41.1122C89.831 41.1146 89.8318 41.1158 89.8319 41.1158C89.832 41.1158 89.8314 41.1146 89.83 41.1122ZM79.0436 40.3648C79.0437 40.3648 79.0445 40.3637 79.0459 40.3615C79.0442 40.3637 79.0435 40.3648 79.0436 40.3648ZM79.0581 40.2004C79.057 40.198 79.0563 40.1968 79.0562 40.1968C79.0561 40.1968 79.0566 40.198 79.0581 40.2004ZM90.4971 41.0777C90.4323 41.9376 87.6697 42.4461 84.3267 42.2134C80.9837 41.9807 78.3262 41.0949 78.391 40.2349C78.4558 39.375 81.2183 38.8665 84.5613 39.0992C87.9043 39.3319 90.5618 40.2177 90.4971 41.0777Z" fill="black"/>
<path id="Ellipse 7" d="M23.776 65.547C25.8445 63.0118 26.9492 60.5253 26.2435 59.9932C25.5377 59.4611 23.2887 61.0849 21.2202 63.62C19.1517 66.1552 18.047 68.6417 18.7528 69.1738C19.4585 69.7059 21.7075 68.0821 23.776 65.547Z" fill="black"/>
<path id="Ellipse 7 (Stroke)" fill-rule="evenodd" clip-rule="evenodd" d="M25.4262 61.7628C25.0089 62.7019 24.2507 63.9084 23.2422 65.1445C22.2336 66.3806 21.1953 67.3759 20.3459 67.9892C19.9171 68.2988 19.5679 68.488 19.3172 68.5736C19.2786 68.5869 19.2457 68.5966 19.2179 68.6037C19.2185 68.5761 19.2205 68.5431 19.2247 68.5038C19.2515 68.2494 19.3594 67.8783 19.5701 67.4042C19.9873 66.4651 20.7455 65.2586 21.754 64.0225C22.7626 62.7864 23.8009 61.7911 24.6503 61.1778C25.0791 60.8682 25.4283 60.679 25.679 60.5933C25.7176 60.5801 25.7506 60.5704 25.7783 60.5633C25.7777 60.5909 25.7757 60.6239 25.7716 60.6632C25.7448 60.9176 25.6368 61.2887 25.4262 61.7628ZM25.7669 60.4409C25.7668 60.4409 25.7672 60.4422 25.7683 60.4446C25.7675 60.442 25.7669 60.4408 25.7669 60.4409ZM25.9006 60.5443C25.9032 60.5448 25.9046 60.5449 25.9047 60.5448C25.9047 60.5447 25.9034 60.5445 25.9006 60.5443ZM19.2294 68.7261C19.2294 68.7261 19.229 68.7248 19.2279 68.7224C19.2287 68.725 19.2293 68.7262 19.2294 68.7261ZM19.0956 68.6227C19.093 68.6222 19.0916 68.6221 19.0915 68.6222C19.0915 68.6223 19.0928 68.6225 19.0956 68.6227ZM26.2435 59.9932C26.9492 60.5253 25.8445 63.0118 23.776 65.547C21.7075 68.0821 19.4585 69.7059 18.7528 69.1738C18.047 68.6417 19.1517 66.1552 21.2202 63.62C23.2887 61.0849 25.5377 59.4611 26.2435 59.9932Z" fill="black"/>
<path id="Ellipse 5 (Stroke)" fill-rule="evenodd" clip-rule="evenodd" d="M22.9417 65.5033C23.1155 65.4361 23.3131 65.5172 23.383 65.6843C30.17 81.9199 49.364 89.7927 66.2539 83.2685C83.1438 76.7443 91.3338 58.2938 84.5467 42.0581C84.4768 41.891 84.5611 41.7011 84.735 41.6339C84.9088 41.5668 85.1063 41.6478 85.1762 41.8149C92.103 58.3848 83.7445 77.2151 66.5069 83.8736C49.2693 90.5321 29.6802 82.4973 22.7534 65.9274C22.6836 65.7603 22.7679 65.5704 22.9417 65.5033Z" fill="black"/>
</g>
<path id="Union" fill-rule="evenodd" clip-rule="evenodd" d="M62.3316 22.8911L56.1975 18.2664L55.0981 25.6852L47.5036 28.6188L53.9438 33.4742L52.8443 40.8931L60.0779 38.0989L66.5181 42.9544L67.6724 35.1654L74.9059 32.3712L68.7718 27.7465L69.9261 19.9575L62.3316 22.8911Z" fill="black"/>
<path id="Union (Stroke)" fill-rule="evenodd" clip-rule="evenodd" d="M55.9444 17.6601L62.3867 22.5171L70.3446 19.4432L69.1351 27.605L75.5773 32.462L67.9804 35.3966L66.7708 43.5584L60.0225 38.4705L52.4254 41.4051L53.5801 33.6134L46.8318 28.5256L54.7897 25.4517L55.9444 17.6601ZM56.4503 18.8703L55.4061 25.9164L48.1751 28.7096L54.307 33.3327L53.2628 40.3788L60.1329 37.725L66.2649 42.3481L67.364 34.9318L74.234 32.2781L68.4082 27.8858L69.5072 20.4695L62.2762 23.2627L56.4503 18.8703Z" fill="black"/>
</g>
</g>
</g>
</g>
<defs>
<clipPath id="clip0_274_859">
<rect width="105" height="103" fill="white"/>
</clipPath>
</defs>
</svg>
