<svg width="96" height="39" viewBox="0 0 96 39" fill="none" xmlns="http://www.w3.org/2000/svg">
<g id="Logo">
<g id="Group 4">
<g id="Group 1089">
<path id="Vector" d="M34.9195 26.367C34.6036 26.3671 34.2948 26.2746 34.0319 26.1014C33.769 25.9281 33.5638 25.6818 33.4422 25.3935C33.3206 25.1052 33.288 24.7877 33.3484 24.481C33.4089 24.1744 33.5597 23.8923 33.782 23.6703L44.8791 12.6212C45.1782 12.3228 45.5849 12.1542 46.0097 12.1524C46.4345 12.1506 46.8427 12.3157 47.1444 12.6115C47.4461 12.9073 47.6166 13.3096 47.6184 13.7297C47.6202 14.1499 47.4532 14.5535 47.1541 14.8519L36.0586 25.8994C35.9096 26.0481 35.7321 26.166 35.5365 26.2463C35.341 26.3266 35.1312 26.3677 34.9195 26.367Z" fill="white"/>
<path id="Vector_2" d="M46.0165 26.367C45.805 26.3678 45.5955 26.3268 45.4002 26.2465C45.2049 26.1662 45.0277 26.0482 44.879 25.8994L33.7819 14.8519C33.4828 14.5535 33.3158 14.1499 33.3176 13.7297C33.3195 13.3096 33.49 12.9073 33.7917 12.6115C34.0934 12.3157 34.5015 12.1506 34.9263 12.1524C35.3511 12.1542 35.7578 12.3228 36.0569 12.6212L47.1508 23.6638C47.373 23.8859 47.5239 24.168 47.5844 24.4746C47.6448 24.7812 47.6122 25.0987 47.4906 25.3871C47.369 25.6754 47.1638 25.9217 46.9009 26.0949C46.638 26.2682 46.3292 26.3606 46.0133 26.3606L46.0165 26.367Z" fill="white"/>
<path id="Vector_3" d="M29.5132 20.3496H18.7996C17.7006 20.3649 16.6404 19.9478 15.8524 19.1901C15.0643 18.4324 14.6129 17.3961 14.5973 16.3092C14.5818 15.2223 15.0035 14.1738 15.7697 13.3944C16.5358 12.615 17.5836 12.1685 18.6826 12.1531H29.9763C30.1907 12.1464 30.4043 12.1823 30.6043 12.2588C30.8044 12.3353 30.9869 12.4507 31.141 12.5983C31.295 12.7459 31.4175 12.9226 31.5012 13.1179C31.5848 13.3133 31.628 13.5233 31.628 13.7354C31.628 13.9475 31.5848 14.1575 31.5012 14.3528C31.4175 14.5481 31.295 14.7249 31.141 14.8724C30.9869 15.02 30.8044 15.1355 30.6043 15.212C30.4043 15.2884 30.1907 15.3244 29.9763 15.3176H18.7752C18.5252 15.321 18.2869 15.4225 18.1126 15.5997C17.9383 15.7769 17.8423 16.0154 17.8457 16.2626C17.8492 16.5098 17.9518 16.7456 18.131 16.918C18.3102 17.0904 18.5512 17.1853 18.8012 17.1819H29.5132C29.7276 17.1751 29.9412 17.2111 30.1412 17.2875C30.3413 17.364 30.5238 17.4795 30.6778 17.6271C30.8319 17.7746 30.9544 17.9514 31.0381 18.1467C31.1217 18.342 31.1648 18.552 31.1648 18.7641C31.1648 18.9763 31.1217 19.1862 31.0381 19.3816C30.9544 19.5769 30.8319 19.7536 30.6778 19.9012C30.5238 20.0488 30.3413 20.1642 30.1412 20.2407C29.9412 20.3172 29.7276 20.3531 29.5132 20.3463V20.3496Z" fill="white"/>
<path id="Vector_4" d="M16.2595 26.3677C15.9991 26.3679 15.7425 26.3052 15.5121 26.185C15.2817 26.0648 15.0845 25.8908 14.9377 25.678C14.7908 25.4653 14.6987 25.2203 14.6693 24.9643C14.64 24.7083 14.6744 24.4492 14.7694 24.2093L17.0005 18.5634C17.1548 18.1726 17.4598 17.8583 17.8483 17.6898C18.2369 17.5214 18.6772 17.5124 19.0724 17.665C19.4676 17.8176 19.7853 18.1192 19.9557 18.5035C20.126 18.8878 20.1351 19.3233 19.9808 19.7141L17.7513 25.3616C17.6339 25.6583 17.4287 25.9131 17.1625 26.0925C16.8964 26.272 16.5817 26.3679 16.2595 26.3677Z" fill="white"/>
<path id="Vector_5" d="M30.194 26.3677C29.7698 26.3673 29.3631 26.2003 29.0633 25.9035C28.7635 25.6066 28.5951 25.2042 28.5951 24.7846V13.7372C28.5882 13.5251 28.6245 13.3139 28.7019 13.1161C28.7792 12.9182 28.8959 12.7377 29.0452 12.5853C29.1944 12.433 29.3731 12.3118 29.5706 12.2291C29.7681 12.1463 29.9804 12.1037 30.1949 12.1037C30.4093 12.1037 30.6216 12.1463 30.8192 12.2291C31.0167 12.3118 31.1953 12.433 31.3446 12.5853C31.4938 12.7377 31.6105 12.9182 31.6879 13.1161C31.7652 13.3139 31.8015 13.5251 31.7947 13.7372V24.7895C31.7934 25.2085 31.6242 25.6099 31.3241 25.9057C31.0241 26.2016 30.6177 26.3677 30.194 26.3677Z" fill="white"/>
<path id="Vector_6" d="M61.2412 24.3352H50.5975C50.182 24.3221 49.788 24.1497 49.4988 23.8544C49.2096 23.5591 49.0479 23.1641 49.0479 22.753C49.0479 22.3418 49.2096 21.9469 49.4988 21.6516C49.788 21.3563 50.182 21.1838 50.5975 21.1707H61.2412C61.4556 21.164 61.6692 21.1999 61.8692 21.2764C62.0693 21.3528 62.2518 21.4683 62.4059 21.6159C62.5599 21.7635 62.6824 21.9402 62.7661 22.1355C62.8497 22.3309 62.8928 22.5408 62.8928 22.753C62.8928 22.9651 62.8497 23.1751 62.7661 23.3704C62.6824 23.5657 62.5599 23.7424 62.4059 23.89C62.2518 24.0376 62.0693 24.1531 61.8692 24.2296C61.6692 24.306 61.4556 24.3419 61.2412 24.3352Z" fill="white"/>
<path id="Vector_7" d="M61.2411 26.368C61.031 26.368 60.823 26.327 60.6288 26.2474C60.4347 26.1679 60.2584 26.0512 60.1099 25.9042C59.9614 25.7572 59.8436 25.5827 59.7634 25.3906C59.6831 25.1985 59.6419 24.9927 59.6421 24.7849V19.004C59.6525 18.5142 59.5639 18.0272 59.3815 17.5716C59.1991 17.116 58.9265 16.701 58.5799 16.3509C58.2332 16.0008 57.8194 15.7227 57.3627 15.5328C56.906 15.343 56.4155 15.2452 55.9201 15.2452C55.4246 15.2452 54.9342 15.343 54.4774 15.5328C54.0207 15.7227 53.6069 16.0008 53.2602 16.3509C52.9136 16.701 52.6411 17.116 52.4587 17.5716C52.2763 18.0272 52.1877 18.5142 52.198 19.004V24.7897C52.2048 25.0018 52.1685 25.213 52.0912 25.4109C52.0139 25.6087 51.8971 25.7892 51.7479 25.9416C51.5987 26.094 51.42 26.2151 51.2225 26.2978C51.025 26.3806 50.8127 26.4232 50.5982 26.4232C50.3837 26.4232 50.1714 26.3806 49.9739 26.2978C49.7764 26.2151 49.5977 26.094 49.4485 25.9416C49.2992 25.7892 49.1825 25.6087 49.1052 25.4109C49.0279 25.213 48.9915 25.0018 48.9984 24.7897V19.004C48.9843 18.0962 49.1529 17.1947 49.4945 16.352C49.836 15.5093 50.3436 14.7421 50.9878 14.0952C51.6319 13.4483 52.3997 12.9346 53.2465 12.584C54.0932 12.2333 55.0021 12.0527 55.9201 12.0527C56.8381 12.0527 57.7469 12.2333 58.5937 12.584C59.4404 12.9346 60.2082 13.4483 60.8524 14.0952C61.4965 14.7421 62.0041 15.5093 62.3456 16.352C62.6872 17.1947 62.8558 18.0962 62.8418 19.004V24.7897C62.8405 25.2088 62.6713 25.6102 62.3712 25.906C62.0712 26.2018 61.6648 26.368 61.2411 26.368Z" fill="white"/>
<path id="Vector_8" d="M78.4305 26.3684H65.8059C65.5915 26.3751 65.378 26.3392 65.1779 26.2627C64.9778 26.1863 64.7953 26.0708 64.6413 25.9232C64.4872 25.7756 64.3647 25.5989 64.2811 25.4036C64.1974 25.2083 64.1543 24.9983 64.1543 24.7862C64.1543 24.574 64.1974 24.3641 64.2811 24.1687C64.3647 23.9734 64.4872 23.7967 64.6413 23.6491C64.7953 23.5015 64.9778 23.386 65.1779 23.3096C65.378 23.2331 65.5915 23.1972 65.8059 23.2039H78.4305C78.6449 23.1972 78.8585 23.2331 79.0586 23.3096C79.2586 23.386 79.4411 23.5015 79.5952 23.6491C79.7492 23.7967 79.8717 23.9734 79.9554 24.1687C80.0391 24.3641 80.0822 24.574 80.0822 24.7862C80.0822 24.9983 80.0391 25.2083 79.9554 25.4036C79.8717 25.5989 79.7492 25.7756 79.5952 25.9232C79.4411 26.0708 79.2586 26.1863 79.0586 26.2627C78.8585 26.3392 78.6449 26.3751 78.4305 26.3684Z" fill="white"/>
<path id="Vector_9" d="M76.4773 25.2222C76.053 25.2218 75.6463 25.0548 75.3465 24.758C75.0467 24.4611 74.8783 24.0587 74.8783 23.6392V18.4738C74.8783 16.7558 73.64 15.356 72.1158 15.356C70.5915 15.356 69.3533 16.7558 69.3533 18.4738V23.6392C69.3601 23.8512 69.3238 24.0624 69.2464 24.2603C69.1691 24.4581 69.0524 24.6386 68.9032 24.791C68.7539 24.9434 68.5752 25.0645 68.3777 25.1473C68.1802 25.23 67.9679 25.2726 67.7535 25.2726C67.539 25.2726 67.3267 25.23 67.1292 25.1473C66.9317 25.0645 66.753 24.9434 66.6038 24.791C66.4545 24.6386 66.3378 24.4581 66.2604 24.2603C66.1831 24.0624 66.1468 23.8512 66.1536 23.6392V18.4738C66.1422 16.8508 66.7484 15.2829 67.8518 14.0815C68.3872 13.487 69.0436 13.0113 69.7781 12.6856C70.5126 12.3598 71.3084 12.1914 72.1133 12.1914C72.9183 12.1914 73.7141 12.3598 74.4486 12.6856C75.183 13.0113 75.8395 13.487 76.3749 14.0815C77.4783 15.2829 78.0845 16.8508 78.073 18.4738V23.6392C78.073 24.0582 77.9051 24.4601 77.6059 24.7568C77.3068 25.0536 76.9009 25.2209 76.4773 25.2222Z" fill="white"/>
<path id="Vector_10" d="M47.3459 35.9494C70.7329 35.9494 89.6918 28.4776 89.6918 19.2608C89.6918 10.044 70.7329 2.57227 47.3459 2.57227C23.9589 2.57227 5 10.044 5 19.2608C5 28.4776 23.9589 35.9494 47.3459 35.9494Z" stroke="white" stroke-width="2.49" stroke-miterlimit="10"/>
</g>
</g>
</g>
</svg>
