<svg width="32" height="32" viewBox="0 0 32 32" fill="none" xmlns="http://www.w3.org/2000/svg">
<g id="Group_29.svg" clip-path="url(#clip0_274_900)">
<path id="Vector" d="M16 32C24.8366 32 32 24.8366 32 16C32 7.16344 24.8366 0 16 0C7.16344 0 0 7.16344 0 16C0 24.8366 7.16344 32 16 32Z" fill="#0A51F9"/>
<path id="Vector_2" fill-rule="evenodd" clip-rule="evenodd" d="M21.7731 8.90985C21.6077 8.94425 21.7514 8.8911 17.9394 10.3274C11.9776 12.5739 9.02993 13.6841 8.43924 13.9058C8.11267 14.0283 7.77741 14.1622 7.69422 14.2035C7.35806 14.3699 7.11108 14.6939 7.11108 14.9683C7.11108 15.2428 7.33509 15.539 7.66907 15.7059C7.75376 15.7483 8.39059 15.944 9.08433 16.1409C9.77793 16.3377 10.4404 16.5261 10.5563 16.5595C10.7261 16.6085 10.7762 16.6378 10.8138 16.7094C10.8395 16.7585 11.1978 17.7508 11.6099 18.9147C12.0222 20.0787 12.3986 21.1019 12.4463 21.1887C12.7985 21.8292 13.5709 22.0393 14.1999 21.6657C14.2915 21.6112 14.7626 21.2075 15.2464 20.7686C15.7303 20.3298 16.1564 19.9571 16.1935 19.9404C16.2322 19.923 16.2804 19.9214 16.3072 19.9367C16.3328 19.9514 16.9108 20.4073 17.5916 20.9499C18.2725 21.4926 18.9234 21.9875 19.038 22.0497C19.7906 22.4578 20.5673 22.1172 20.8106 21.2723C20.9053 20.9435 23.1114 10.1203 23.1111 9.9863C23.1103 9.68932 22.9698 9.35323 22.7641 9.15625C22.5468 8.94825 22.1103 8.83967 21.7731 8.90985ZM22.1249 9.85207C22.1519 9.87874 22.1739 9.94656 22.1739 10.0028C22.1739 10.164 19.9309 21.0475 19.8762 21.152C19.8079 21.2823 19.7048 21.3235 19.5566 21.2796C19.3989 21.233 14.8808 17.6466 14.8679 17.5578C14.8612 17.5122 15.4989 16.8249 17.2709 14.9678C18.5975 13.5775 19.709 12.3983 19.7408 12.3475C19.8096 12.2374 19.816 12.0531 19.755 11.9373C19.6715 11.7791 19.5612 11.706 19.3842 11.6915C19.2189 11.678 19.2189 11.678 15.6729 13.4651C13.7226 14.448 11.8965 15.3675 11.615 15.5084C11.1031 15.7648 11.1031 15.7648 9.80246 15.4002C9.08699 15.1996 8.47712 15.0234 8.44705 15.0085C8.41696 14.9937 8.39236 14.9629 8.39236 14.9403C8.39236 14.9146 8.7946 14.7473 9.46273 14.4952C17.6302 11.4126 21.9236 9.80541 21.9921 9.80461C22.038 9.80407 22.0978 9.8255 22.1249 9.85207ZM16.9863 13.9046C16.9863 13.9216 16.261 14.6951 15.3746 15.6235C14.4883 16.552 13.7439 17.3474 13.7204 17.391C13.697 17.4347 13.5416 18.0174 13.3751 18.686C13.2085 19.3546 13.0577 19.9196 13.0398 19.9417C13.013 19.9746 13.0006 19.9746 12.9701 19.9417C12.91 19.8768 11.7621 16.594 11.773 16.5185C11.7815 16.4608 12.1983 16.2398 14.33 15.1634C15.7308 14.4559 16.9016 13.8763 16.9316 13.8754C16.9617 13.8745 16.9863 13.8875 16.9863 13.9046ZM14.9844 18.8768C15.4338 19.2362 15.4727 19.2763 15.4331 19.3417C15.4113 19.3779 14.3924 20.3126 14.0214 20.6368C13.9308 20.716 13.8754 20.7451 13.8545 20.7243C13.8188 20.6891 14.3102 18.6536 14.3826 18.5367C14.4394 18.4449 14.4557 18.454 14.9844 18.8768Z" fill="white"/>
</g>
<defs>
<clipPath id="clip0_274_900">
<rect width="32" height="32" fill="white"/>
</clipPath>
</defs>
</svg>
