<svg width="32" height="32" viewBox="0 0 32 32" fill="none" xmlns="http://www.w3.org/2000/svg">
<g id="Vector.svg" clip-path="url(#clip0_274_897)">
<path id="Vector" d="M5 7.99988H27V24.9999H5V7.99988Z" fill="white"/>
<path id="Vector_2" fill-rule="evenodd" clip-rule="evenodd" d="M14.5976 0.0235819C14.4944 0.0384001 14.1005 0.0937336 13.7222 0.146504C8.29324 0.903854 3.47742 4.58069 1.32241 9.6136C-0.842225 14.669 -0.326967 20.372 2.70319 24.896C5.66844 29.3231 10.6772 31.9971 16.0044 31.9971C21.8308 31.9971 27.1682 28.8444 30.0298 23.7127C31.0146 21.9467 31.7227 19.6609 31.9517 17.5082C32.0459 16.6227 31.9957 14.5715 31.8581 13.6777C31.0987 8.74884 28.2289 4.56212 23.8866 2.04835C22.3326 1.1487 20.2693 0.44024 18.3177 0.136187C17.6906 0.0384626 15.0501 -0.0414428 14.5976 0.0235819ZM15.9322 12.4513C16.3278 12.639 16.3577 12.7959 16.3635 14.7113C16.3687 16.3681 16.3723 16.4168 16.5038 16.5483C16.7008 16.7455 16.8959 16.6674 17.2607 16.2454C17.8761 15.5335 18.5003 14.4753 19.0512 13.2104C19.2803 12.6843 19.3471 12.6654 20.9779 12.6658C22.4099 12.6662 22.7236 12.7127 22.8776 12.9478C22.9682 13.086 22.9675 13.1267 22.8701 13.4292C22.7033 13.9474 22.4624 14.3355 21.4642 15.6941C20.4248 17.1089 20.3013 17.3208 20.3661 17.5789C20.3928 17.6854 20.7701 18.1214 21.3322 18.6953C22.2683 19.651 22.8624 20.406 22.9337 20.7305C22.9885 20.9801 22.8302 21.2545 22.5566 21.3843C22.3594 21.4779 22.155 21.4891 20.9751 21.4709C19.6374 21.4503 19.6155 21.4478 19.2637 21.275C18.9903 21.1408 18.7316 20.9133 18.1518 20.297C17.7362 19.8553 17.3133 19.4596 17.2119 19.4177C16.7863 19.2413 16.5871 19.4737 16.4329 20.3265C16.2344 21.4239 16.2019 21.4467 14.9038 21.4028C14.1574 21.3775 13.8918 21.3417 13.4332 21.2045C12.0519 20.7909 11.0202 20.0019 9.94115 18.5338C9.05094 17.3226 8.27033 15.9802 7.50922 14.3519C6.91056 13.071 6.90005 13.0313 7.10645 12.8249C7.26557 12.6658 7.26832 12.6655 8.39106 12.6655C9.00992 12.6655 9.65873 12.696 9.83286 12.7334C10.1953 12.8111 10.3504 12.9785 10.581 13.5408C10.8179 14.1187 11.3854 15.158 11.7732 15.7238C12.5787 16.8993 12.9822 17.0034 13.1434 16.0775C13.2232 15.6193 13.2278 14.5749 13.1529 13.9285C13.0926 13.4076 13.0016 13.2701 12.598 13.0895C12.3693 12.9871 12.3315 12.9446 12.3479 12.8078C12.3736 12.5932 12.6189 12.4209 12.9965 12.352C13.5021 12.2596 15.6838 12.3335 15.9322 12.4513Z" fill="#0A51F9"/>
</g>
<defs>
<clipPath id="clip0_274_897">
<rect width="32" height="32" fill="white"/>
</clipPath>
</defs>
</svg>
